<svg width="24" height="25" viewBox="0 0 24 25" fill="none" xmlns="http://www.w3.org/2000/svg">
<path d="M23.7666 10.1498H22.8V10.1H12V14.9H18.7818C17.7924 17.6942 15.1338 19.7 12 19.7C8.0238 19.7 4.8 16.4762 4.8 12.5C4.8 8.52381 8.0238 5.3 12 5.3C13.8354 5.3 15.5052 5.9924 16.7766 7.12341L20.1708 3.7292C18.0276 1.7318 15.1608 0.5 12 0.5C5.373 0.5 0 5.873 0 12.5C0 19.127 5.373 24.5 12 24.5C18.627 24.5 24 19.127 24 12.5C24 11.6954 23.9172 10.91 23.7666 10.1498Z" fill="#FFC107"/>
<path d="M1.38281 6.9146L5.32541 9.80601C6.39221 7.1648 8.97581 5.3 11.9992 5.3C13.8346 5.3 15.5044 5.9924 16.7758 7.1234L20.17 3.7292C18.0268 1.7318 15.16 0.5 11.9992 0.5C7.39001 0.5 3.39281 3.1022 1.38281 6.9146Z" fill="#FF3D00"/>
<path d="M11.9994 24.5012C15.099 24.5012 17.9154 23.315 20.0448 21.386L16.3308 18.2432C15.126 19.1558 13.6284 19.7012 11.9994 19.7012C8.87821 19.7012 6.22801 17.711 5.22961 14.9336L1.31641 17.9486C3.30241 21.8348 7.33561 24.5012 11.9994 24.5012Z" fill="#4CAF50"/>
<path d="M23.7666 10.1514H22.8V10.1016H12V14.9016H18.7818C18.3066 16.2438 17.4432 17.4012 16.3296 18.2442L16.3314 18.243L20.0454 21.3858C19.7826 21.6246 24 18.5016 24 12.5016C24 11.697 23.9172 10.9116 23.7666 10.1514Z" fill="#1976D2"/>
</svg>
